<?xml version="1.0" encoding="UTF-8"?>
<svg width="273" height="102" xmlns="http://www.w3.org/2000/svg">
 <path d="m273 102h-273v-102h273zm-221-40h1.94c1.45 0 2.72-1.82 5.05-7.25 1.72-3.99 3.64-7.9 4.28-8.69s1.29-4.73 1.73-16.06l-0.8-2.75c-2.64-9.15-16.91-15.38-24.2-8.25l-2.53 1.18c-2.2 1.04-2.72 0.91-4.05-1-2.57-3.66-7.29-2.97-10.42 4.82l-1.94 10.25c-5.36 28.38-8.17 50.19-6.73 52.23 3.14 4.43 6.63 1.09 8.86-8.48 2.68-11.45 3.69-12.54 9.54-10.39 6.43 2.37 12.93 1.35 19.27-5.61zm106-19-13-5-3-1-1.69-0.94c-2.85-1.58-2.76-5.85 2.69-9.06l3.25 0.25c1.79 0.14 4.04 0.59 6.75 1.75l2.25 2.13c1.39 1.31 2.92 1.88 5.75 0.87l3-3-0.25-3.75c-0.23-3.48-0.66-3.96-5.98-6.65-14.21-7.19-32.58 2.1-31.77 20.4l2.25 2.75c1.4 1.72 4.69 3.58 8.75 4.97 3.58 1.21 7.74 2.9 12 5.28l0.04 2.25c0.05 3.74-1.79 5.64-11.04 7.75l-1.75-0.69c-0.96-0.38-3.21-2.21-5-4.07-2.43-2.52-3.93-3.29-6-3.06-6.05 0.7-3.43 11.1 5.75 14.82l0.74 0.75c2.15 2.17 12.8 1.28 17.69-1.48 10.64-5.98 16.12-17.87 8.57-25.27zm26 28 11-1 5-2 8-6 2.75-3.25c1.51-1.79 3.09-4.26 4.25-7.75l-1-2 2-4 0.67-3.76c1.14-6.36-2.85-18.69-7.1-21.97-10.68-8.23-34.5 1.54-37.57 17.73v2l-2 8-0.49-1.75c-0.28-0.96-0.28 1.06 0.49 10.75l0.25 2.57c0.43 4.44 4.01 8.64 13.75 12.43zm-101-2 7.21-2.42c7.2-2.41 7.2-2.41 10.54 0.25 5.37 4.3 9.22 1.55 9.91-7.07 0.28-3.44 1.14-9.3 3.34-19.76l1.62-4.75c3.83-11.22-1.64-18.51-20.62-19.25l-2.25 0.25c-4.54 0.5-12.78 5.61-14.99 9.28-4.24 7.07 2.04 11.76 10.24 2.47l5.59-0.69c7.1-0.87 9.41 0.4 9.41 5.16 0 1.9-0.45 3.7-2 4.53l-9.23 1.75c-5.08 0.96-10.25 2.31-13.77 4.25l-1.25 0.87c-11.46 7.95-10.2 25.68 6.25 25.13zm153 1 3.25-0.25c6.87-0.53 17.13-4.7 18.75-9.75l0.97-0.52c2.47-1.32 3.28-8.83 1.38-12.83-1.72-3.61-2.47-4.09-10.42-6.69-9.29-3.05-11.19-4.52-11.06-8.55 0.21-6.27 8.33-7.37 15.9-2.16 8.24 5.66 13.25-2.48 5.59-9.08-8.52-7.33-22.13-5.16-30.44 4.86-8.79 10.59-5.97 18.08 8.76 23.26 7.46 2.62 9 3.56 12.32 9.71l-4.25 1.55c-2.34 0.86-5.49 1.53-9.75 1.45l-5.1-4.25c-4.99-4.16-5.15-4.21-7.5-2.55-5.78 4.09-1.6 13.32 11.6 15.8zm-153-9-1.25-1.45c-0.69-0.8-1.14-2.82-0.75-7.55l2.75-1.67c3.58-2.17 15.81-5.07 16.89-4.01 0.46 0.46 0.06 3.03-0.89 5.73-2.19 6.19-5.94 8.95-16.75 8.95zm-51-26 3.95-3.62c11.18-10.23 19.23-0.02 12.05 25.62l-4.41 2.11c-4.99 2.39-10.7 1.43-12.6-2.12-1.29-2.41-1.28-16.18 1.01-21.99zm149 6 2.27-4.75c6.93-14.51 20.95-14.01 21.73 7.75l-1 4-2 5-1.25 2.75c-2.12 4.66-15.96 6.59-17.08 2.38-0.24-0.9-0.5-1.18-0.57-0.63-0.49 3.7-2.07-3.33-2.1-16.5z" fill="rgba(0,0,0,0)"/>
 <path d="m251 58c-3.32-6.15-4.86-7.09-12.32-9.71-14.73-5.18-17.55-12.67-8.76-23.26 8.31-10.02 21.92-12.19 30.44-4.86 7.66 6.6 2.65 14.74-5.59 9.08-7.57-5.21-15.69-4.11-15.9 2.16-0.13 4.03 1.77 5.5 11.06 8.55 7.95 2.6 8.7 3.08 10.42 6.69 1.9 4 1.09 11.51-1.38 12.83l-0.97 0.52z" fill="rgba(28,145,198,0.988235)"/>
 <path d="m23 24 9 11c-2.29 5.81-2.3 19.58-1.01 21.99 1.9 3.55 7.61 4.51 12.6 2.12l4.41-2.11 4 5c-6.34 6.96-12.84 7.98-19.27 5.61-5.85-2.15-6.86-1.06-9.54 10.39-2.23 9.57-5.72 12.91-8.86 8.48-1.44-2.04 1.37-23.85 6.73-52.23z" fill="rgba(153,181,84,0.976471)"/>
 <path d="m207 47-2-3c-0.78-21.76-14.8-22.26-21.73-7.75l-2.27 4.75-0.75 0.04c-0.41 0.03-1.99-0.2-6.25-1.04l-2-3c3.07-16.19 26.89-25.96 37.57-17.73 4.25 3.28 8.24 15.61 7.1 21.97l-0.67 3.76-5 3h-1l-1 0.25c-0.55 0.14-1.23-0.09-2-1.25z" fill="rgba(28,145,198,0.988235)"/>
 <path d="m52 62-4-5c7.18-25.64-0.87-35.85-12.05-25.62l-3.95 3.62-9-11c3.13-7.79 7.85-8.48 10.42-4.82 1.33 1.91 1.85 2.04 4.05 1l2.53-1.18h3l4.75 3.2c2.61 1.76 6.89 4.23 14.25 7.8l0.82 0.94c0.51 0.6 1.07 0.6 2.18-0.94-0.44 11.33-1.09 15.27-1.73 16.06s-2.56 4.7-4.28 8.69c-2.33 5.43-3.6 7.25-5.05 7.25z" fill="rgba(229,178,76,0.956863)"/>
 <path d="m170 56v-9l2-8 2 1c4.26 0.84 5.84 1.07 6.25 1.04l0.75-0.04c0.03 13.17 1.61 20.2 2.1 16.5 0.07-0.55 0.33-0.27 0.57 0.63 1.12 4.21 14.96 2.28 17.08-2.38l1.25-2.75 3-5 2-1c0.77 1.16 1.45 1.39 2 1.25l1-0.25 5 3c-1.16 3.49-2.74 5.96-4.25 7.75l-2.75 3.25-8 6-5 2-11 1c-9.74-3.79-13.32-7.99-13.75-12.43z" fill="rgba(224,40,96,0.968627)"/>
 <path d="m83 69v-8c10.81 0 14.56-2.76 16.75-8.95 0.95-2.7 1.35-5.27 0.89-5.73-1.08-1.06-13.31 1.84-16.89 4.01l-2.75 1.67-0.7-4.25c-0.39-2.34-1.07-4.36-2.3-4.75 3.52-1.94 8.69-3.29 13.77-4.25l9.23-1.75-0.45 0.73c-0.25 0.41 2.67 1.08 13.45 2.27-2.2 10.46-3.06 16.32-3.34 19.76-0.69 8.62-4.54 11.37-9.91 7.07-3.34-2.66-3.34-2.66-10.54-0.25z" fill="rgba(193,127,178,0.988235)"/>
 <path d="m164 29-3 3c-2.83 1.01-4.36 0.44-5.75-0.87l-2.25-2.13-0.75-1.25c-1.16-1.93-7.29-3.35-9.25-0.75-5.45 3.21-5.54 7.48-2.69 9.06l1.69 0.94h-2.69c-1.47 0-3.66-0.74-4.86-1.64-2.05-1.53-2.31-1.5-6.45 2.64l-2 1c-0.81-18.3 17.56-27.59 31.77-20.4 5.32 2.69 5.75 3.17 5.98 6.65z" fill="rgba(224,40,96,0.968627)"/>
 <path d="m114 40c-10.78-1.19-13.7-1.86-13.45-2.27l0.45-0.73c1.55-0.83 2-2.63 2-4.53 0-4.76-2.31-6.03-9.41-5.16l-5.59 0.69 7-12c18.98 0.74 24.45 8.03 20.62 19.25z" fill="rgba(224,40,96,0.968627)"/>
 <path d="m131 69 7-7c9.25-2.11 11.09-4.01 11.04-7.75l-0.04-2.25 3.75-2.75c2.06-1.51 4.09-3.54 5.25-6.25 7.55 7.4 2.07 19.29-8.57 25.27-4.89 2.76-15.54 3.65-17.69 1.48z" fill="rgba(137,45,109,0.976471)"/>
 <path d="m126 39 2-1h17l13 5c-1.16 2.71-3.19 4.74-5.25 6.25l-3.75 2.75c-4.26-2.38-8.42-4.07-12-5.28-4.06-1.39-7.35-3.25-8.75-4.97z" fill="rgba(193,127,178,0.988235)"/>
 <path d="m78 43c1.23 0.39 1.91 2.41 2.3 4.75l0.7 4.25c-0.39 4.73 0.06 6.75 0.75 7.55l1.25 1.45v8c-16.45 0.55-17.71-17.18-6.25-25.13z" fill="rgba(229,178,76,0.956863)"/>
 <path d="m237 61-0.97 0.25c-0.53 0.14-0.76 0.59-0.03 1.75v6 1c-13.2-2.48-17.38-11.71-11.6-15.8 2.35-1.66 2.51-1.61 7.5 2.55z" fill="rgba(224,40,96,0.968627)"/>
 <path d="m236 70v-1-6c-0.73-1.16-0.5-1.61 0.03-1.75l0.97-0.25c4.26 0.08 7.41-0.59 9.75-1.45l4.25-1.55 7 2c-1.62 5.05-11.88 9.22-18.75 9.75z" fill="rgba(229,178,76,0.956863)"/>
 <path d="m131 69c-9.18-3.72-11.8-14.12-5.75-14.82 2.07-0.23 3.57 0.54 6 3.06 1.79 1.86 4.04 3.69 5 4.07l1.75 0.69z" fill="rgba(193,127,178,0.988235)"/>
 <path d="m95 16-7 12c-8.2 9.29-14.48 4.6-10.24-2.47 2.21-3.67 10.45-8.78 14.99-9.28zm-7.94 5.53c-2.16-1.33-8.06 4.77-8.06 8.34 0 0.62 0.79 1.12 1.75 1.11 0.96 0 2.2-0.34 2.75-0.75 1.67-1.22 4.49-8.12 3.56-8.7" fill="rgba(221,109,76,0.956863)"/>
 <path d="m43 19 4.25-0.25c6.99-0.41 9.96 1.13 14.75 11.25-7.36-3.57-11.64-6.04-14.25-7.8z" fill="rgba(234,112,53,1)"/>
 <path d="m62 30c-4.79-10.12-7.76-11.66-14.75-11.25l-4.25 0.25h-3c7.29-7.13 21.56-0.9 24.2 8.25l0.8 2.75c-1.11 1.54-1.67 1.54-2.18 0.94z" fill="rgba(221,109,76,0.956863)"/>
 <path d="m87.06 21.53c0.93 0.58-1.89 7.48-3.56 8.7-0.55 0.41-1.79 0.75-2.75 0.75-0.96 0.01-1.75-0.49-1.75-1.11 0-3.57 5.9-9.67 8.06-8.34" fill="rgba(234,112,53,1)"/>
 <path d="m128 38c4.14-4.14 4.4-4.17 6.45-2.64 1.2 0.9 3.39 1.64 4.86 1.64h2.69l3 1z" fill="rgba(216,35,127,1)"/>
 <path d="m200 68 8-6z" fill="rgba(193,127,178,0.988235)"/>
 <path d="m143 27c1.96-2.6 8.09-1.18 9.25 0.75l0.75 1.25c-2.71-1.16-4.96-1.61-6.75-1.75z" fill="rgba(193,127,178,0.988235)"/>
 <path d="m170 47v9c-0.77-9.69-0.77-11.71-0.49-10.75z" fill="rgba(193,127,178,0.988235)"/>
 <path d="m184 71 11-1z" fill="rgba(193,127,178,0.988235)"/>
 <path d="m211 48 5-3-2 4z" fill="rgba(99,112,153,0.956863)"/>
 <path d="m204 48 1-4 2 3-2 1z" fill="rgba(99,112,153,0.956863)"/>
 <path d="m236 69v-6z" fill="rgba(234,112,53,1)"/>
 <path d="m202 53 2-5h1z" fill="rgba(193,127,178,0.988235)"/>
 <path d="m210 48h1l3 1 1 2z" fill="rgba(137,45,109,0.976471)"/>
 <path d="m172 39v-2l2 3z" fill="rgba(99,112,153,0.956863)"/>
 <path d="m161 32 3-3z" fill="rgba(193,127,178,0.988235)"/>
</svg>
