<?xml version="1.0" encoding="UTF-8"?>
<svg width="504" height="493" xmlns="http://www.w3.org/2000/svg">
 <path d="m504 493h-504v-493h504zm-261-36h5 6l16.75-1.75c46.09-4.82 85.92-21.73 119.09-50.56 14.64-12.73 32.92-33.62 43.16-51.69l3.25-4.75c1.79-2.61 3.29-5.8 3.34-7.09s0.39-2.53 1.41-3.16l3-4 1.25-2.61c14.98-31.23 23.46-86.93 15.75-121.39v-3l-1.75-9.25c-7.68-40.6-37.5-91.88-73.25-119.75l-2-2-5.75-4.75c-18.46-15.25-60.95-34-95.25-39.25l-13.25-1.74c-74.97-9.83-159.38 32.46-209.75 115.74l-7.25 17.75c-3.99 9.76-7.81 20.56-9.75 30.25l-1 2 1 4-0.73 0.45c-2.02 1.25-4.44 19.17-4.95 36.55-1.71 58.58 19.16 112.38 59.93 154.5 14.84 15.33 13.36 17.02 26.75-56.5l1-4 12.13-66.25c6.67-36.44 12.07-66.81 11.87-68.75l2.64-12.25c1.46-6.74 4.18-20.12 6.06-29.75 8.79-44.99 8.71-44.73 14.52-53.36 7.57-11.28 14.83-15.14 28.43-15.14 19.16 0 26.16 8.23 25.01 29.4-0.36 6.66-0.39 12.1-0.07 12.1 0.33 0 3.67-3.76 7.43-8.35 3.8-4.64 10.65-11.3 23.98-21.65l8.75-3.66c39.81-16.67 82.65-6.6 109.25 33.66l2 3 1 4 3.25 10.25c2.51 7.93 3.53 13.59 5.75 39.75v7 3l-3 30-1 4-3.25 14.25c-9.53 41.78-30.29 79.32-56.75 102.61-16.87 14.85-44.53 27.14-66 27.14l-6.75 0.11c-23.7 0.37-43.19-9.97-53.19-28.22-2.65-4.84-4.38-7.04-5.02-6.39-1.35 1.4-19.29 98.32-18.88 102 0.32 2.86 0.78 3.13 18.84 8.5l13.25 3.23c7.29 1.78 18.76 3.81 37.75 5.77zm74-255 0.12-8.56c0.31-22.12-10.94-40.89-27.73-46.25-30.95-9.9-63.02 15.61-79.39 73.81l-1 4-0.97 4.25c-7.94 34.74 0.17 68.61 18.75 78.37 21.56 11.31 48.86 1.62 66.22-23.5 12.73-18.42 24.44-54.51 24-82.12z" fill="rgba(0,0,0,0)"/>
 <path d="m192 448 28.25-36.4c25.56-32.94 28.66-36.56 36.75-39.6 21.47 0 49.13-12.29 66-27.14 26.46-23.29 47.22-60.83 56.75-102.61l3.25-14.25 2-2 22.25 63.25c17.32 49.24 22.64 63.31 25.75 63.75-10.24 18.07-28.52 38.96-43.16 51.69-33.17 28.83-73 45.74-119.09 50.56l-16.75 1.75-6-1-5 1c-18.99-1.96-30.46-3.99-37.75-5.77z" fill="rgba(132,43,114,0.988235)"/>
 <path d="m60 146c50.37-83.28 134.78-125.57 209.75-115.74l13.25 1.74-5.38 13.75c-2.97 7.56-8.82 22.19-20.62 51.25-13.33 10.35-20.18 17.01-23.98 21.65-3.76 4.59-7.1 8.35-7.43 8.35-0.32 0-0.29-5.44 0.07-12.1 1.15-21.17-5.85-29.4-25.01-29.4-13.6 0-20.86 3.86-28.43 15.14-5.81 8.63-5.73 8.37-14.52 53.36-1.88 9.63-4.6 23.01-6.06 29.75l-2.64 12.25z" fill="rgba(239,112,51,0.988235)"/>
 <path d="m111 316-1-2-5-9-4-6-2-6-19-33-5-7v-2l-7-12-1-2-3-5h-1v-2l-3-5-3-4-1-1v-2l-3-5-2-4-3-5-4-7-1-3c1.94-9.69 5.76-20.49 9.75-30.25l7.25-17.75 89 50c0.2 1.94-5.2 32.31-11.87 68.75l-12.13 66.25h-3l-2.65-2.75c-1.45-1.51-3.93-4.89-8.35-12.25z" fill="rgba(239,181,51,0.988235)"/>
 <path d="m209 225 9-2 99-21c0.44 27.61-11.27 63.7-24 82.12-17.36 25.12-44.66 34.81-66.22 23.5-18.58-9.76-26.69-43.63-18.75-78.37z" fill="rgba(191,127,181,1)"/>
 <path d="m385 226-1-2 3-30 2-1 0.75 1.2c0.41 0.66 2.44 1.11 8.25 0.8l2.75 1.05c1.51 0.57 3.31 1.02 5.25 0.95l3.25 1.24c1.79 0.69 3.59 1.14 4.75 0.76h2l8 2 1.75 0.65c0.96 0.36 2.31 0.58 4.25 0.35l5 1 3.15 1.25c1.73 0.69 3.53 1.14 4.85 0.75l13 3h2l3 2c7.71 34.46-0.77 90.16-15.75 121.39l-1.25 2.61-3 4c-1.02 0.63-1.36 1.87-1.41 3.16s-1.55 4.48-3.34 7.09l-3.25 4.75c-3.11-0.44-8.43-14.51-25.75-63.75z" fill="rgba(234,45,73,0.988235)"/>
 <path d="m43 200 4.5 7.25c2.48 3.99 4.77 8.22 5.09 9.41 0.32 1.2 1.22 2.43 3.41 3.34l1 1-0.75 0.56c-0.41 0.3 0.71 2.33 5.75 8.44h1v2l4.25 8.75c2.34 4.81 4.81 9.09 6.75 10.25h1v2l0.84 3.1c0.46 1.71 6.31 12.06 25.16 42.9l4 6-0.75 0.56c-0.41 0.3 0.71 2.33 5.75 8.44l1 2 4.25 8.65c4.67 9.51 6.45 12.24 7.75 10.35h1c-13.39 73.52-11.91 71.83-26.75 56.5-40.77-42.12-61.64-95.92-59.93-154.5 0.51-17.38 2.93-35.3 4.95-36.55z" fill="rgba(150,186,81,0.988235)"/>
 <path d="m456 208-0.75-1.25c-0.41-0.69-3.56-1.59-13.25-2.75l-5-1-2.25-0.75c-1.24-0.41-2.81-0.64-4.75-0.25-1.94 0.23-3.29 0.01-4.25-0.35l-1.75-0.65v-1l-10-2-4-1-14-3h-1.32c-0.73 0-2.08-0.45-4.68-2l0.11-2.25c0.21-4.5-0.14-5.75-3.11-5.75-2.22-26.16-3.24-31.82-5.75-39.75l-3.25-10.25 2-17 1-14 1.54-6.75c0.84-3.71 1.53-8.77 1.52-11.25s0.42-5.06 1.94-7c35.75 27.87 65.57 79.15 73.25 119.75l1.75 9.25-3 1z" fill="rgba(25,145,198,1)"/>
 <path d="m210 221c16.37-58.2 48.44-83.71 79.39-73.81 16.79 5.36 28.04 24.13 27.73 46.25l-0.12 8.56-99 21-4 0.35c-2.87 0.25-4-0.03-4-2.35z" fill="rgba(234,25,119,0.988235)"/>
 <path d="m375 127c-26.6-40.26-69.44-50.33-109.25-33.66l-8.75 3.66c11.8-29.06 17.65-43.69 20.62-51.25l5.38-13.75c34.3 5.25 76.79 24 95.25 39.25l5.75 4.75-3 25-0.68 2.4c-1.09 3.86-1.36 5.87-1.32 13.6l-0.79 4.25c-0.43 2.34-1.33 4.59-3.21 5.75z" fill="rgba(234,25,119,0.988235)"/>
 <path d="m257 372c-8.09 3.04-11.19 6.66-36.75 39.6l-28.25 36.4c-18.06-5.37-18.52-5.64-18.84-8.5-0.41-3.68 17.53-100.6 18.88-102 0.64-0.65 2.37 1.55 5.02 6.39 10 18.25 29.49 28.59 53.19 28.22z" fill="rgba(191,127,181,1)"/>
 <path d="m75 253 5 7 19 33 2 6c-18.85-30.84-24.7-41.19-25.16-42.9z" fill="rgba(170,183,73,0.988235)"/>
 <path d="m80 260 19 33z" fill="rgba(206,186,66,0.988235)"/>
 <path d="m111 316c4.42 7.36 6.9 10.74 8.35 12.25l2.65 2.75 1 4c-1.3 1.89-3.08-0.84-7.75-10.35z" fill="rgba(170,183,73,0.988235)"/>
 <path d="m43 200-1-4 2 1 4 7 3 5 2 4 3 5v2c-2.19-0.91-3.09-2.14-3.41-3.34-0.32-1.19-2.61-5.42-5.09-9.41z" fill="rgba(170,183,73,0.988235)"/>
 <path d="m381 103v-2l3-25 2 2c-1.52 1.94-1.95 4.52-1.94 7s-0.68 7.54-1.52 11.25z" fill="rgba(96,114,168,0.988235)"/>
 <path d="m63 232h1l3 5 7 14c-1.94-1.16-4.41-5.44-6.75-10.25z" fill="rgba(170,183,73,0.988235)"/>
 <path d="m443 205-1-1c9.69 1.16 12.84 2.06 13.25 2.75l0.75 1.25z" fill="rgba(96,114,168,0.988235)"/>
 <path d="m387 191v-7c2.97 0 3.32 1.25 3.11 5.75l-0.11 2.25z" fill="rgba(79,133,181,0.988235)"/>
 <path d="m378 134-1-4 2-13h1z" fill="rgba(96,114,168,0.988235)"/>
 <path d="m379 117c-0.04-7.73 0.23-9.74 1.32-13.6l0.68-2.4v2l-1 14z" fill="rgba(153,89,147,0.968627)"/>
 <path d="m74 251-6-12 7 12z" fill="rgba(206,186,66,0.988235)"/>
 <path d="m375 127c1.88-1.16 2.78-3.41 3.21-5.75l0.79-4.25-2 13z" fill="rgba(153,89,147,0.968627)"/>
 <path d="m105 305 5 9c-5.04-6.11-6.16-8.14-5.75-8.44z" fill="rgba(170,183,73,0.988235)"/>
 <path d="m398 195-2-1 14 3h-4c-1.94 0.07-3.74-0.38-5.25-0.95z" fill="rgba(96,114,168,0.988235)"/>
 <path d="m57 221 3 4 2 5c-5.04-6.11-6.16-8.14-5.75-8.44z" fill="rgba(170,183,73,0.988235)"/>
 <path d="m389 193 1-1c2.6 1.55 3.95 2 4.68 2h1.32l2 1c-5.81 0.31-7.84-0.14-8.25-0.8z" fill="rgba(153,89,147,0.968627)"/>
 <path d="m209 225 1-4c0 2.32 1.13 2.6 4 2.35l4-0.35z" fill="rgba(211,86,160,0.988235)"/>
 <path d="m414 199v-1l10 2-8-1z" fill="rgba(96,114,168,0.988235)"/>
 <path d="m416 199 8 1v1z" fill="rgba(153,89,147,0.968627)"/>
 <path d="m123 335-1-4h3l-1 4z" fill="rgba(206,186,66,0.988235)"/>
 <path d="m435 203h2l5 1 1 1c-1.32 0.39-3.12-0.06-4.85-0.75z" fill="rgba(153,89,147,0.968627)"/>
 <path d="m406 197h4l4 1v1c-1.16 0.38-2.96-0.07-4.75-0.76z" fill="rgba(153,89,147,0.968627)"/>
 <path d="m430 202c1.94-0.39 3.51-0.16 4.75 0.25l2.25 0.75h-2z" fill="rgba(96,114,168,0.988235)"/>
 <path d="m441 338 3-4z" fill="rgba(211,86,160,0.988235)"/>
 <path d="m64 232 3 5z" fill="rgba(206,186,66,0.988235)"/>
 <path d="m62 230-2-5 3 5z" fill="rgba(206,186,66,0.988235)"/>
 <path d="m53 213 3 5z" fill="rgba(206,186,66,0.988235)"/>
 <path d="m458 208 3-1v3z" fill="rgba(96,114,168,0.988235)"/>
 <path d="m48 204 3 5z" fill="rgba(206,186,66,0.988235)"/>
 <path d="m248 457v-1l6 1z" fill="rgba(153,89,147,0.968627)"/>
 <path d="m383 228 1-4 1 2z" fill="rgba(211,86,160,0.988235)"/>
 <path d="m387 194v-3l3 1-1 1z" fill="rgba(96,114,168,0.988235)"/>
 <path d="m243 457 5-1v1z" fill="rgba(191,127,181,1)"/>
 <path d="m42 196 1-2 1 3z" fill="rgba(206,186,66,0.988235)"/>
</svg>
